# xmcd CD database file
#
# Track frame offsets:
#	187
#	31462
#	73032
#	107600
#	131470
#	151260
#
# Disc length: 2518 seconds
#
# Revision: 2
# Processed by: cddbd v1.5.1PL0 Copyright (c) Steve Scherf et al.
# Submitted via: CDex 1.51
#
DISCID=4709d406
DTITLE=Sonny Rollins - Tour De Force
DYEAR=1956
DGENRE=Jazz
TTITLE0=EE-AH
TTITLE1=B. Quick
TTITLE2=Two Different Worlds
TTITLE3=B. Swift
TTITLE4=My Ideal
TTITLE5=Sonny Boy
EXTD=YEAR: 1956
EXTT0=
EXTT1=
EXTT2=
EXTT3=
EXTT4=
EXTT5=
PLAYORDER=
